<svg xmlns="http://www.w3.org/2000/svg" viewBox="0 0 960 540" fill="none">
  <rect width="960" height="540" fill="white"/>
  <defs>
    <marker id="arrow" viewBox="0 0 10 10" refX="9" refY="5" markerWidth="7" markerHeight="7" orient="auto-start-reverse">
      <path d="M0 0 10 5 0 10z" fill="black"/>
    </marker>
  </defs>

  <g stroke="black" stroke-width="3" fill="white">
    <rect x="80" y="184" width="180" height="132" rx="24"/>
    <rect x="392" y="92" width="176" height="132" rx="24"/>
    <rect x="392" y="316" width="176" height="132" rx="24"/>
    <rect x="700" y="184" width="180" height="132" rx="24"/>
    <path d="M260 250H392" marker-end="url(#arrow)"/>
    <path d="M568 158H700" marker-end="url(#arrow)"/>
    <path d="M700 250H568" marker-end="url(#arrow)"/>
    <path d="M480 224V316" marker-end="url(#arrow)"/>
  </g>

  <g fill="black" font-family="Arial, sans-serif" text-anchor="middle">
    <text x="170" y="238" font-size="28" font-weight="700">User</text>
    <text x="170" y="270" font-size="16">Prompt input</text>
    <text x="170" y="292" font-size="16">and context</text>

    <text x="480" y="146" font-size="28" font-weight="700">AI Clients</text>
    <text x="480" y="178" font-size="16">OpenCode</text>
    <text x="480" y="200" font-size="16">Claude Code</text>

    <text x="480" y="370" font-size="28" font-weight="700">MCP Server</text>
    <text x="480" y="402" font-size="16">Memory tools</text>
    <text x="480" y="424" font-size="16">routing and sync</text>

    <text x="790" y="238" font-size="28" font-weight="700">Supabase</text>
    <text x="790" y="270" font-size="16">Persistent</text>
    <text x="790" y="292" font-size="16">project storage</text>
  </g>
</svg>
