<svg xmlns="http://www.w3.org/2000/svg" viewBox="0 0 512 512" fill="none">
  <rect width="512" height="512" rx="96" fill="white"/>
  <g stroke="black" stroke-width="18" stroke-linecap="round" stroke-linejoin="round">
    <path d="M170 170c-36 0-66 30-66 66 0 27 16 49 39 60-8 14-13 30-13 47 0 49 39 89 88 89 18 0 35-5 49-15 14 10 31 15 49 15 49 0 88-40 88-89 0-17-5-33-13-47 23-11 39-33 39-60 0-36-30-66-66-66-8-44-46-78-92-78s-84 34-92 78Z"/>
    <path d="M256 138v236"/>
    <path d="M204 192c18 10 28 28 28 50s-10 40-28 50"/>
    <path d="M308 192c-18 10-28 28-28 50s10 40 28 50"/>
    <path d="M188 338c22-8 45-8 68 0"/>
    <path d="M324 338c-22-8-45-8-68 0"/>
    <path d="M154 248h40"/>
    <path d="M318 248h40"/>
  </g>
  <g fill="black">
    <circle cx="154" cy="248" r="16"/>
    <circle cx="194" cy="248" r="12"/>
    <circle cx="256" cy="138" r="16"/>
    <circle cx="256" cy="374" r="14"/>
    <circle cx="318" cy="248" r="12"/>
    <circle cx="358" cy="248" r="16"/>
  </g>
</svg>
